<mxfile host="app.diagrams.net" agent="Mozilla/5.0 (Windows NT 10.0; Win64; x64) AppleWebKit/537.36 (KHTML, like Gecko) Chrome/131.0.0.0 Safari/537.36" version="25.0.3">
  <diagram id="R2lEEEUBdFMjLlhIrx00" name="Page-1">
    <mxGraphModel dx="1456" dy="649" grid="1" gridSize="10" guides="1" tooltips="1" connect="1" arrows="1" fold="1" page="1" pageScale="1" pageWidth="1100" pageHeight="850" math="0" shadow="0" extFonts="Permanent Marker^https://fonts.googleapis.com/css?family=Permanent+Marker">
      <root>
        <mxCell id="0" />
        <mxCell id="1" parent="0" />
        <mxCell id="3GR5pyVDqdPCGIeIbzPI-6" style="rounded=0;orthogonalLoop=1;jettySize=auto;html=1;entryX=0.5;entryY=0;entryDx=0;entryDy=0;endArrow=none;endFill=0;" edge="1" parent="1" source="3GR5pyVDqdPCGIeIbzPI-13" target="3GR5pyVDqdPCGIeIbzPI-5">
          <mxGeometry relative="1" as="geometry" />
        </mxCell>
        <mxCell id="3GR5pyVDqdPCGIeIbzPI-10" style="edgeStyle=none;shape=connector;rounded=0;orthogonalLoop=1;jettySize=auto;html=1;entryX=0;entryY=0.5;entryDx=0;entryDy=0;strokeColor=default;align=center;verticalAlign=middle;fontFamily=Helvetica;fontSize=11;fontColor=default;labelBackgroundColor=default;endArrow=none;endFill=0;" edge="1" parent="1" source="3GR5pyVDqdPCGIeIbzPI-1" target="3GR5pyVDqdPCGIeIbzPI-2">
          <mxGeometry relative="1" as="geometry" />
        </mxCell>
        <mxCell id="3GR5pyVDqdPCGIeIbzPI-1" value="SUCURSALES" style="whiteSpace=wrap;html=1;align=center;" vertex="1" parent="1">
          <mxGeometry x="217" y="186" width="100" height="40" as="geometry" />
        </mxCell>
        <mxCell id="3GR5pyVDqdPCGIeIbzPI-2" value="VIAJES" style="whiteSpace=wrap;html=1;align=center;" vertex="1" parent="1">
          <mxGeometry x="587" y="186" width="100" height="40" as="geometry" />
        </mxCell>
        <mxCell id="3GR5pyVDqdPCGIeIbzPI-9" style="edgeStyle=none;shape=connector;rounded=0;orthogonalLoop=1;jettySize=auto;html=1;strokeColor=default;align=center;verticalAlign=middle;fontFamily=Helvetica;fontSize=11;fontColor=default;labelBackgroundColor=default;endArrow=none;endFill=0;entryX=1;entryY=0.5;entryDx=0;entryDy=0;" edge="1" parent="1" source="3GR5pyVDqdPCGIeIbzPI-3" target="3GR5pyVDqdPCGIeIbzPI-16">
          <mxGeometry relative="1" as="geometry">
            <mxPoint x="637" y="406" as="targetPoint" />
          </mxGeometry>
        </mxCell>
        <mxCell id="3GR5pyVDqdPCGIeIbzPI-19" style="edgeStyle=none;shape=connector;rounded=0;orthogonalLoop=1;jettySize=auto;html=1;entryX=0.5;entryY=0;entryDx=0;entryDy=0;strokeColor=default;align=center;verticalAlign=middle;fontFamily=Helvetica;fontSize=11;fontColor=default;labelBackgroundColor=default;endArrow=none;endFill=0;" edge="1" parent="1" source="3GR5pyVDqdPCGIeIbzPI-3" target="3GR5pyVDqdPCGIeIbzPI-18">
          <mxGeometry relative="1" as="geometry" />
        </mxCell>
        <mxCell id="3GR5pyVDqdPCGIeIbzPI-3" value="VUELOS" style="whiteSpace=wrap;html=1;align=center;" vertex="1" parent="1">
          <mxGeometry x="777" y="366" width="100" height="40" as="geometry" />
        </mxCell>
        <mxCell id="3GR5pyVDqdPCGIeIbzPI-8" style="edgeStyle=none;shape=connector;rounded=0;orthogonalLoop=1;jettySize=auto;html=1;entryX=0.5;entryY=1;entryDx=0;entryDy=0;strokeColor=default;align=center;verticalAlign=middle;fontFamily=Helvetica;fontSize=11;fontColor=default;labelBackgroundColor=default;endArrow=none;endFill=0;" edge="1" parent="1" source="3GR5pyVDqdPCGIeIbzPI-16" target="3GR5pyVDqdPCGIeIbzPI-2">
          <mxGeometry relative="1" as="geometry" />
        </mxCell>
        <mxCell id="3GR5pyVDqdPCGIeIbzPI-28" style="edgeStyle=none;shape=connector;rounded=0;orthogonalLoop=1;jettySize=auto;html=1;entryX=0.5;entryY=0;entryDx=0;entryDy=0;strokeColor=default;align=center;verticalAlign=middle;fontFamily=Helvetica;fontSize=11;fontColor=default;labelBackgroundColor=default;endArrow=none;endFill=0;" edge="1" parent="1" source="3GR5pyVDqdPCGIeIbzPI-4" target="3GR5pyVDqdPCGIeIbzPI-27">
          <mxGeometry relative="1" as="geometry" />
        </mxCell>
        <mxCell id="3GR5pyVDqdPCGIeIbzPI-30" style="edgeStyle=none;shape=connector;rounded=0;orthogonalLoop=1;jettySize=auto;html=1;exitX=1;exitY=1;exitDx=0;exitDy=0;entryX=0;entryY=0;entryDx=0;entryDy=0;strokeColor=default;align=center;verticalAlign=middle;fontFamily=Helvetica;fontSize=11;fontColor=default;labelBackgroundColor=default;endArrow=none;endFill=0;" edge="1" parent="1" source="3GR5pyVDqdPCGIeIbzPI-4" target="3GR5pyVDqdPCGIeIbzPI-29">
          <mxGeometry relative="1" as="geometry" />
        </mxCell>
        <mxCell id="3GR5pyVDqdPCGIeIbzPI-4" value="HOTELES" style="whiteSpace=wrap;html=1;align=center;" vertex="1" parent="1">
          <mxGeometry x="587" y="546" width="100" height="40" as="geometry" />
        </mxCell>
        <mxCell id="3GR5pyVDqdPCGIeIbzPI-7" style="edgeStyle=none;shape=connector;rounded=0;orthogonalLoop=1;jettySize=auto;html=1;exitX=1;exitY=0.5;exitDx=0;exitDy=0;entryX=0;entryY=0.5;entryDx=0;entryDy=0;strokeColor=default;align=center;verticalAlign=middle;fontFamily=Helvetica;fontSize=11;fontColor=default;labelBackgroundColor=default;endArrow=none;endFill=0;" edge="1" parent="1" source="3GR5pyVDqdPCGIeIbzPI-5" target="3GR5pyVDqdPCGIeIbzPI-4">
          <mxGeometry relative="1" as="geometry" />
        </mxCell>
        <mxCell id="3GR5pyVDqdPCGIeIbzPI-54" style="edgeStyle=none;shape=connector;rounded=0;orthogonalLoop=1;jettySize=auto;html=1;exitX=0;exitY=0;exitDx=0;exitDy=0;entryX=1;entryY=1;entryDx=0;entryDy=0;strokeColor=default;align=center;verticalAlign=middle;fontFamily=Helvetica;fontSize=11;fontColor=default;labelBackgroundColor=default;endArrow=none;endFill=0;" edge="1" parent="1" source="3GR5pyVDqdPCGIeIbzPI-5" target="3GR5pyVDqdPCGIeIbzPI-53">
          <mxGeometry relative="1" as="geometry" />
        </mxCell>
        <mxCell id="3GR5pyVDqdPCGIeIbzPI-5" value="TURISTAS" style="whiteSpace=wrap;html=1;align=center;" vertex="1" parent="1">
          <mxGeometry x="217" y="546" width="100" height="40" as="geometry" />
        </mxCell>
        <mxCell id="3GR5pyVDqdPCGIeIbzPI-12" value="elegir" style="shape=rhombus;perimeter=rhombusPerimeter;whiteSpace=wrap;html=1;align=center;fontFamily=Helvetica;fontSize=11;fontColor=default;labelBackgroundColor=default;" vertex="1" parent="1">
          <mxGeometry x="397" y="536" width="120" height="60" as="geometry" />
        </mxCell>
        <mxCell id="3GR5pyVDqdPCGIeIbzPI-14" value="" style="rounded=0;orthogonalLoop=1;jettySize=auto;html=1;entryX=0.5;entryY=0;entryDx=0;entryDy=0;endArrow=none;endFill=0;" edge="1" parent="1" source="3GR5pyVDqdPCGIeIbzPI-1" target="3GR5pyVDqdPCGIeIbzPI-13">
          <mxGeometry relative="1" as="geometry">
            <mxPoint x="267" y="226" as="sourcePoint" />
            <mxPoint x="267" y="546" as="targetPoint" />
          </mxGeometry>
        </mxCell>
        <mxCell id="3GR5pyVDqdPCGIeIbzPI-13" value="contratar" style="shape=rhombus;perimeter=rhombusPerimeter;whiteSpace=wrap;html=1;align=center;fontFamily=Helvetica;fontSize=11;fontColor=default;labelBackgroundColor=default;" vertex="1" parent="1">
          <mxGeometry x="207" y="356" width="120" height="60" as="geometry" />
        </mxCell>
        <mxCell id="3GR5pyVDqdPCGIeIbzPI-15" value="ofertar" style="shape=rhombus;perimeter=rhombusPerimeter;whiteSpace=wrap;html=1;align=center;fontFamily=Helvetica;fontSize=11;fontColor=default;labelBackgroundColor=default;" vertex="1" parent="1">
          <mxGeometry x="397" y="176" width="120" height="60" as="geometry" />
        </mxCell>
        <mxCell id="3GR5pyVDqdPCGIeIbzPI-17" value="" style="edgeStyle=none;shape=connector;rounded=0;orthogonalLoop=1;jettySize=auto;html=1;entryX=0.5;entryY=1;entryDx=0;entryDy=0;strokeColor=default;align=center;verticalAlign=middle;fontFamily=Helvetica;fontSize=11;fontColor=default;labelBackgroundColor=default;endArrow=none;endFill=0;" edge="1" parent="1" source="3GR5pyVDqdPCGIeIbzPI-4" target="3GR5pyVDqdPCGIeIbzPI-16">
          <mxGeometry relative="1" as="geometry">
            <mxPoint x="637" y="546" as="sourcePoint" />
            <mxPoint x="637" y="226" as="targetPoint" />
          </mxGeometry>
        </mxCell>
        <mxCell id="3GR5pyVDqdPCGIeIbzPI-16" value="preasignar" style="shape=rhombus;perimeter=rhombusPerimeter;whiteSpace=wrap;html=1;align=center;fontFamily=Helvetica;fontSize=11;fontColor=default;labelBackgroundColor=default;" vertex="1" parent="1">
          <mxGeometry x="577" y="356" width="120" height="60" as="geometry" />
        </mxCell>
        <mxCell id="3GR5pyVDqdPCGIeIbzPI-18" value="fecha_hora" style="ellipse;whiteSpace=wrap;html=1;align=center;fontFamily=Helvetica;fontSize=11;fontColor=default;labelBackgroundColor=default;" vertex="1" parent="1">
          <mxGeometry x="777" y="436" width="100" height="40" as="geometry" />
        </mxCell>
        <mxCell id="3GR5pyVDqdPCGIeIbzPI-21" style="edgeStyle=none;shape=connector;rounded=0;orthogonalLoop=1;jettySize=auto;html=1;entryX=0.5;entryY=0;entryDx=0;entryDy=0;strokeColor=default;align=center;verticalAlign=middle;fontFamily=Helvetica;fontSize=11;fontColor=default;labelBackgroundColor=default;endArrow=none;endFill=0;" edge="1" parent="1" source="3GR5pyVDqdPCGIeIbzPI-20" target="3GR5pyVDqdPCGIeIbzPI-3">
          <mxGeometry relative="1" as="geometry" />
        </mxCell>
        <mxCell id="3GR5pyVDqdPCGIeIbzPI-20" value="NÂº_vuelo" style="ellipse;whiteSpace=wrap;html=1;align=center;fontStyle=4;fontFamily=Helvetica;fontSize=11;fontColor=default;labelBackgroundColor=default;" vertex="1" parent="1">
          <mxGeometry x="777" y="296" width="100" height="40" as="geometry" />
        </mxCell>
        <mxCell id="3GR5pyVDqdPCGIeIbzPI-23" style="edgeStyle=none;shape=connector;rounded=0;orthogonalLoop=1;jettySize=auto;html=1;entryX=1;entryY=0.75;entryDx=0;entryDy=0;strokeColor=default;align=center;verticalAlign=middle;fontFamily=Helvetica;fontSize=11;fontColor=default;labelBackgroundColor=default;endArrow=none;endFill=0;" edge="1" parent="1" source="3GR5pyVDqdPCGIeIbzPI-22" target="3GR5pyVDqdPCGIeIbzPI-3">
          <mxGeometry relative="1" as="geometry" />
        </mxCell>
        <mxCell id="3GR5pyVDqdPCGIeIbzPI-22" value="origen" style="ellipse;whiteSpace=wrap;html=1;align=center;fontFamily=Helvetica;fontSize=11;fontColor=default;labelBackgroundColor=default;" vertex="1" parent="1">
          <mxGeometry x="897" y="406" width="100" height="40" as="geometry" />
        </mxCell>
        <mxCell id="3GR5pyVDqdPCGIeIbzPI-26" style="edgeStyle=none;shape=connector;rounded=0;orthogonalLoop=1;jettySize=auto;html=1;exitX=0;exitY=1;exitDx=0;exitDy=0;entryX=1;entryY=0.25;entryDx=0;entryDy=0;strokeColor=default;align=center;verticalAlign=middle;fontFamily=Helvetica;fontSize=11;fontColor=default;labelBackgroundColor=default;endArrow=none;endFill=0;" edge="1" parent="1" source="3GR5pyVDqdPCGIeIbzPI-24" target="3GR5pyVDqdPCGIeIbzPI-3">
          <mxGeometry relative="1" as="geometry" />
        </mxCell>
        <mxCell id="3GR5pyVDqdPCGIeIbzPI-24" value="destino" style="ellipse;whiteSpace=wrap;html=1;align=center;fontFamily=Helvetica;fontSize=11;fontColor=default;labelBackgroundColor=default;" vertex="1" parent="1">
          <mxGeometry x="897" y="326" width="100" height="40" as="geometry" />
        </mxCell>
        <mxCell id="3GR5pyVDqdPCGIeIbzPI-27" value="cod_hotel" style="ellipse;whiteSpace=wrap;html=1;align=center;fontStyle=4;fontFamily=Helvetica;fontSize=11;fontColor=default;labelBackgroundColor=default;" vertex="1" parent="1">
          <mxGeometry x="587" y="636" width="100" height="40" as="geometry" />
        </mxCell>
        <mxCell id="3GR5pyVDqdPCGIeIbzPI-29" value="nombre" style="ellipse;whiteSpace=wrap;html=1;align=center;fontFamily=Helvetica;fontSize=11;fontColor=default;labelBackgroundColor=default;" vertex="1" parent="1">
          <mxGeometry x="697" y="606" width="100" height="40" as="geometry" />
        </mxCell>
        <mxCell id="3GR5pyVDqdPCGIeIbzPI-32" style="edgeStyle=none;shape=connector;rounded=0;orthogonalLoop=1;jettySize=auto;html=1;exitX=0;exitY=0.5;exitDx=0;exitDy=0;entryX=1;entryY=0.5;entryDx=0;entryDy=0;strokeColor=default;align=center;verticalAlign=middle;fontFamily=Helvetica;fontSize=11;fontColor=default;labelBackgroundColor=default;endArrow=none;endFill=0;" edge="1" parent="1" source="3GR5pyVDqdPCGIeIbzPI-31" target="3GR5pyVDqdPCGIeIbzPI-4">
          <mxGeometry relative="1" as="geometry" />
        </mxCell>
        <mxCell id="3GR5pyVDqdPCGIeIbzPI-31" value="direccion" style="ellipse;whiteSpace=wrap;html=1;align=center;fontFamily=Helvetica;fontSize=11;fontColor=default;labelBackgroundColor=default;" vertex="1" parent="1">
          <mxGeometry x="717" y="546" width="100" height="40" as="geometry" />
        </mxCell>
        <mxCell id="3GR5pyVDqdPCGIeIbzPI-34" style="edgeStyle=none;shape=connector;rounded=0;orthogonalLoop=1;jettySize=auto;html=1;exitX=0;exitY=1;exitDx=0;exitDy=0;entryX=1;entryY=0;entryDx=0;entryDy=0;strokeColor=default;align=center;verticalAlign=middle;fontFamily=Helvetica;fontSize=11;fontColor=default;labelBackgroundColor=default;endArrow=none;endFill=0;" edge="1" parent="1" source="3GR5pyVDqdPCGIeIbzPI-33" target="3GR5pyVDqdPCGIeIbzPI-4">
          <mxGeometry relative="1" as="geometry" />
        </mxCell>
        <mxCell id="3GR5pyVDqdPCGIeIbzPI-33" value="telefono" style="ellipse;whiteSpace=wrap;html=1;align=center;fontFamily=Helvetica;fontSize=11;fontColor=default;labelBackgroundColor=default;" vertex="1" parent="1">
          <mxGeometry x="697" y="486" width="100" height="40" as="geometry" />
        </mxCell>
        <mxCell id="3GR5pyVDqdPCGIeIbzPI-35" value="precio" style="ellipse;whiteSpace=wrap;html=1;align=center;fontFamily=Helvetica;fontSize=11;fontColor=default;labelBackgroundColor=default;" vertex="1" parent="1">
          <mxGeometry x="509.5" y="326" width="100" height="40" as="geometry" />
        </mxCell>
        <mxCell id="3GR5pyVDqdPCGIeIbzPI-36" style="edgeStyle=none;shape=connector;rounded=0;orthogonalLoop=1;jettySize=auto;html=1;entryX=0;entryY=0;entryDx=0;entryDy=0;strokeColor=default;align=center;verticalAlign=middle;fontFamily=Helvetica;fontSize=11;fontColor=default;labelBackgroundColor=default;endArrow=none;endFill=0;exitX=1;exitY=1;exitDx=0;exitDy=0;" edge="1" parent="1" source="3GR5pyVDqdPCGIeIbzPI-35" target="3GR5pyVDqdPCGIeIbzPI-16">
          <mxGeometry relative="1" as="geometry">
            <mxPoint x="677" y="360" as="sourcePoint" />
          </mxGeometry>
        </mxCell>
        <mxCell id="3GR5pyVDqdPCGIeIbzPI-39" style="edgeStyle=none;shape=connector;rounded=0;orthogonalLoop=1;jettySize=auto;html=1;exitX=0;exitY=0;exitDx=0;exitDy=0;entryX=1;entryY=1;entryDx=0;entryDy=0;strokeColor=default;align=center;verticalAlign=middle;fontFamily=Helvetica;fontSize=11;fontColor=default;labelBackgroundColor=default;endArrow=none;endFill=0;" edge="1" parent="1" source="3GR5pyVDqdPCGIeIbzPI-38" target="3GR5pyVDqdPCGIeIbzPI-16">
          <mxGeometry relative="1" as="geometry" />
        </mxCell>
        <mxCell id="3GR5pyVDqdPCGIeIbzPI-38" value="fecha_asignacion" style="ellipse;whiteSpace=wrap;html=1;align=center;fontFamily=Helvetica;fontSize=11;fontColor=default;labelBackgroundColor=default;" vertex="1" parent="1">
          <mxGeometry x="667" y="406" width="100" height="40" as="geometry" />
        </mxCell>
        <mxCell id="3GR5pyVDqdPCGIeIbzPI-43" style="edgeStyle=none;shape=connector;rounded=0;orthogonalLoop=1;jettySize=auto;html=1;entryX=1;entryY=0;entryDx=0;entryDy=0;strokeColor=default;align=center;verticalAlign=middle;fontFamily=Helvetica;fontSize=11;fontColor=default;labelBackgroundColor=default;endArrow=none;endFill=0;" edge="1" parent="1" source="3GR5pyVDqdPCGIeIbzPI-40" target="3GR5pyVDqdPCGIeIbzPI-12">
          <mxGeometry relative="1" as="geometry" />
        </mxCell>
        <mxCell id="3GR5pyVDqdPCGIeIbzPI-40" value="fecha_partida" style="ellipse;whiteSpace=wrap;html=1;align=center;fontFamily=Helvetica;fontSize=11;fontColor=default;labelBackgroundColor=default;" vertex="1" parent="1">
          <mxGeometry x="477" y="476" width="100" height="40" as="geometry" />
        </mxCell>
        <mxCell id="3GR5pyVDqdPCGIeIbzPI-42" style="edgeStyle=none;shape=connector;rounded=0;orthogonalLoop=1;jettySize=auto;html=1;entryX=0;entryY=0;entryDx=0;entryDy=0;strokeColor=default;align=center;verticalAlign=middle;fontFamily=Helvetica;fontSize=11;fontColor=default;labelBackgroundColor=default;endArrow=none;endFill=0;exitX=0.5;exitY=1;exitDx=0;exitDy=0;" edge="1" parent="1" source="3GR5pyVDqdPCGIeIbzPI-41" target="3GR5pyVDqdPCGIeIbzPI-12">
          <mxGeometry relative="1" as="geometry" />
        </mxCell>
        <mxCell id="3GR5pyVDqdPCGIeIbzPI-41" value="fecha_llegada" style="ellipse;whiteSpace=wrap;html=1;align=center;fontFamily=Helvetica;fontSize=11;fontColor=default;labelBackgroundColor=default;" vertex="1" parent="1">
          <mxGeometry x="337" y="476" width="100" height="40" as="geometry" />
        </mxCell>
        <mxCell id="3GR5pyVDqdPCGIeIbzPI-45" style="edgeStyle=none;shape=connector;rounded=0;orthogonalLoop=1;jettySize=auto;html=1;entryX=0.5;entryY=1;entryDx=0;entryDy=0;strokeColor=default;align=center;verticalAlign=middle;fontFamily=Helvetica;fontSize=11;fontColor=default;labelBackgroundColor=default;endArrow=none;endFill=0;" edge="1" parent="1" source="3GR5pyVDqdPCGIeIbzPI-44" target="3GR5pyVDqdPCGIeIbzPI-12">
          <mxGeometry relative="1" as="geometry" />
        </mxCell>
        <mxCell id="3GR5pyVDqdPCGIeIbzPI-44" value="regimen_hospedaje" style="ellipse;whiteSpace=wrap;html=1;align=center;fontFamily=Helvetica;fontSize=11;fontColor=default;labelBackgroundColor=default;" vertex="1" parent="1">
          <mxGeometry x="404.5" y="666" width="105" height="45" as="geometry" />
        </mxCell>
        <mxCell id="3GR5pyVDqdPCGIeIbzPI-49" style="edgeStyle=none;shape=connector;rounded=0;orthogonalLoop=1;jettySize=auto;html=1;entryX=0.5;entryY=1;entryDx=0;entryDy=0;strokeColor=default;align=center;verticalAlign=middle;fontFamily=Helvetica;fontSize=11;fontColor=default;labelBackgroundColor=default;endArrow=none;endFill=0;" edge="1" parent="1" source="3GR5pyVDqdPCGIeIbzPI-46" target="3GR5pyVDqdPCGIeIbzPI-5">
          <mxGeometry relative="1" as="geometry" />
        </mxCell>
        <mxCell id="3GR5pyVDqdPCGIeIbzPI-46" value="nombre" style="ellipse;whiteSpace=wrap;html=1;align=center;fontFamily=Helvetica;fontSize=11;fontColor=default;labelBackgroundColor=default;" vertex="1" parent="1">
          <mxGeometry x="217" y="636" width="100" height="40" as="geometry" />
        </mxCell>
        <mxCell id="3GR5pyVDqdPCGIeIbzPI-48" style="edgeStyle=none;shape=connector;rounded=0;orthogonalLoop=1;jettySize=auto;html=1;exitX=0;exitY=0;exitDx=0;exitDy=0;entryX=1;entryY=1;entryDx=0;entryDy=0;strokeColor=default;align=center;verticalAlign=middle;fontFamily=Helvetica;fontSize=11;fontColor=default;labelBackgroundColor=default;endArrow=none;endFill=0;" edge="1" parent="1" source="3GR5pyVDqdPCGIeIbzPI-47" target="3GR5pyVDqdPCGIeIbzPI-5">
          <mxGeometry relative="1" as="geometry" />
        </mxCell>
        <mxCell id="3GR5pyVDqdPCGIeIbzPI-47" value="cod_turista" style="ellipse;whiteSpace=wrap;html=1;align=center;fontStyle=4;fontFamily=Helvetica;fontSize=11;fontColor=default;labelBackgroundColor=default;" vertex="1" parent="1">
          <mxGeometry x="317" y="606" width="100" height="40" as="geometry" />
        </mxCell>
        <mxCell id="3GR5pyVDqdPCGIeIbzPI-51" style="edgeStyle=none;shape=connector;rounded=0;orthogonalLoop=1;jettySize=auto;html=1;exitX=1;exitY=0;exitDx=0;exitDy=0;entryX=0;entryY=1;entryDx=0;entryDy=0;strokeColor=default;align=center;verticalAlign=middle;fontFamily=Helvetica;fontSize=11;fontColor=default;labelBackgroundColor=default;endArrow=none;endFill=0;" edge="1" parent="1" source="3GR5pyVDqdPCGIeIbzPI-50" target="3GR5pyVDqdPCGIeIbzPI-5">
          <mxGeometry relative="1" as="geometry" />
        </mxCell>
        <mxCell id="3GR5pyVDqdPCGIeIbzPI-50" value="apellidos" style="ellipse;whiteSpace=wrap;html=1;align=center;fontFamily=Helvetica;fontSize=11;fontColor=default;labelBackgroundColor=default;" vertex="1" parent="1">
          <mxGeometry x="117" y="606" width="100" height="40" as="geometry" />
        </mxCell>
        <mxCell id="3GR5pyVDqdPCGIeIbzPI-55" style="edgeStyle=none;shape=connector;rounded=0;orthogonalLoop=1;jettySize=auto;html=1;exitX=1;exitY=0.5;exitDx=0;exitDy=0;entryX=0;entryY=0.5;entryDx=0;entryDy=0;strokeColor=default;align=center;verticalAlign=middle;fontFamily=Helvetica;fontSize=11;fontColor=default;labelBackgroundColor=default;endArrow=none;endFill=0;" edge="1" parent="1" source="3GR5pyVDqdPCGIeIbzPI-52" target="3GR5pyVDqdPCGIeIbzPI-5">
          <mxGeometry relative="1" as="geometry" />
        </mxCell>
        <mxCell id="3GR5pyVDqdPCGIeIbzPI-52" value="direccion" style="ellipse;whiteSpace=wrap;html=1;align=center;fontFamily=Helvetica;fontSize=11;fontColor=default;labelBackgroundColor=default;" vertex="1" parent="1">
          <mxGeometry x="77" y="546" width="100" height="40" as="geometry" />
        </mxCell>
        <mxCell id="3GR5pyVDqdPCGIeIbzPI-53" value="telefono" style="ellipse;whiteSpace=wrap;html=1;align=center;fontFamily=Helvetica;fontSize=11;fontColor=default;labelBackgroundColor=default;" vertex="1" parent="1">
          <mxGeometry x="117" y="486" width="100" height="40" as="geometry" />
        </mxCell>
        <mxCell id="3GR5pyVDqdPCGIeIbzPI-57" style="edgeStyle=none;shape=connector;rounded=0;orthogonalLoop=1;jettySize=auto;html=1;exitX=0;exitY=0.5;exitDx=0;exitDy=0;entryX=1;entryY=0.5;entryDx=0;entryDy=0;strokeColor=default;align=center;verticalAlign=middle;fontFamily=Helvetica;fontSize=11;fontColor=default;labelBackgroundColor=default;endArrow=none;endFill=0;" edge="1" parent="1" source="3GR5pyVDqdPCGIeIbzPI-56" target="3GR5pyVDqdPCGIeIbzPI-13">
          <mxGeometry relative="1" as="geometry" />
        </mxCell>
        <mxCell id="3GR5pyVDqdPCGIeIbzPI-56" value="fecha_contrato" style="ellipse;whiteSpace=wrap;html=1;align=center;fontFamily=Helvetica;fontSize=11;fontColor=default;labelBackgroundColor=default;" vertex="1" parent="1">
          <mxGeometry x="337" y="366" width="100" height="40" as="geometry" />
        </mxCell>
        <mxCell id="3GR5pyVDqdPCGIeIbzPI-59" style="edgeStyle=none;shape=connector;rounded=0;orthogonalLoop=1;jettySize=auto;html=1;strokeColor=default;align=center;verticalAlign=middle;fontFamily=Helvetica;fontSize=11;fontColor=default;labelBackgroundColor=default;endArrow=none;endFill=0;" edge="1" parent="1" source="3GR5pyVDqdPCGIeIbzPI-58" target="3GR5pyVDqdPCGIeIbzPI-1">
          <mxGeometry relative="1" as="geometry" />
        </mxCell>
        <mxCell id="3GR5pyVDqdPCGIeIbzPI-58" value="cod_sucursal" style="ellipse;whiteSpace=wrap;html=1;align=center;fontStyle=4;fontFamily=Helvetica;fontSize=11;fontColor=default;labelBackgroundColor=default;" vertex="1" parent="1">
          <mxGeometry x="217" y="90" width="100" height="40" as="geometry" />
        </mxCell>
        <mxCell id="3GR5pyVDqdPCGIeIbzPI-61" style="edgeStyle=none;shape=connector;rounded=0;orthogonalLoop=1;jettySize=auto;html=1;exitX=1;exitY=1;exitDx=0;exitDy=0;entryX=0;entryY=0;entryDx=0;entryDy=0;strokeColor=default;align=center;verticalAlign=middle;fontFamily=Helvetica;fontSize=11;fontColor=default;labelBackgroundColor=default;endArrow=none;endFill=0;" edge="1" parent="1" source="3GR5pyVDqdPCGIeIbzPI-60" target="3GR5pyVDqdPCGIeIbzPI-1">
          <mxGeometry relative="1" as="geometry" />
        </mxCell>
        <mxCell id="3GR5pyVDqdPCGIeIbzPI-60" value="direccion" style="ellipse;whiteSpace=wrap;html=1;align=center;fontFamily=Helvetica;fontSize=11;fontColor=default;labelBackgroundColor=default;" vertex="1" parent="1">
          <mxGeometry x="117" y="130" width="100" height="40" as="geometry" />
        </mxCell>
        <mxCell id="3GR5pyVDqdPCGIeIbzPI-63" style="edgeStyle=none;shape=connector;rounded=0;orthogonalLoop=1;jettySize=auto;html=1;exitX=1;exitY=0.5;exitDx=0;exitDy=0;entryX=0;entryY=0.5;entryDx=0;entryDy=0;strokeColor=default;align=center;verticalAlign=middle;fontFamily=Helvetica;fontSize=11;fontColor=default;labelBackgroundColor=default;endArrow=none;endFill=0;" edge="1" parent="1" source="3GR5pyVDqdPCGIeIbzPI-62" target="3GR5pyVDqdPCGIeIbzPI-1">
          <mxGeometry relative="1" as="geometry" />
        </mxCell>
        <mxCell id="3GR5pyVDqdPCGIeIbzPI-62" value="telefono" style="ellipse;whiteSpace=wrap;html=1;align=center;fontFamily=Helvetica;fontSize=11;fontColor=default;labelBackgroundColor=default;" vertex="1" parent="1">
          <mxGeometry x="77" y="186" width="100" height="40" as="geometry" />
        </mxCell>
        <mxCell id="3GR5pyVDqdPCGIeIbzPI-65" style="edgeStyle=none;shape=connector;rounded=0;orthogonalLoop=1;jettySize=auto;html=1;entryX=1;entryY=0.5;entryDx=0;entryDy=0;strokeColor=default;align=center;verticalAlign=middle;fontFamily=Helvetica;fontSize=11;fontColor=default;labelBackgroundColor=default;endArrow=none;endFill=0;" edge="1" parent="1" source="3GR5pyVDqdPCGIeIbzPI-64" target="3GR5pyVDqdPCGIeIbzPI-2">
          <mxGeometry relative="1" as="geometry" />
        </mxCell>
        <mxCell id="3GR5pyVDqdPCGIeIbzPI-64" value="cod_viaje" style="ellipse;whiteSpace=wrap;html=1;align=center;fontStyle=4;fontFamily=Helvetica;fontSize=11;fontColor=default;labelBackgroundColor=default;" vertex="1" parent="1">
          <mxGeometry x="730" y="186" width="100" height="40" as="geometry" />
        </mxCell>
        <mxCell id="3GR5pyVDqdPCGIeIbzPI-67" style="edgeStyle=none;shape=connector;rounded=0;orthogonalLoop=1;jettySize=auto;html=1;exitX=0.5;exitY=1;exitDx=0;exitDy=0;entryX=0.5;entryY=0;entryDx=0;entryDy=0;strokeColor=default;align=center;verticalAlign=middle;fontFamily=Helvetica;fontSize=11;fontColor=default;labelBackgroundColor=default;endArrow=none;endFill=0;" edge="1" parent="1" source="3GR5pyVDqdPCGIeIbzPI-66" target="3GR5pyVDqdPCGIeIbzPI-2">
          <mxGeometry relative="1" as="geometry" />
        </mxCell>
        <mxCell id="3GR5pyVDqdPCGIeIbzPI-66" value="nombre" style="ellipse;whiteSpace=wrap;html=1;align=center;fontFamily=Helvetica;fontSize=11;fontColor=default;labelBackgroundColor=default;" vertex="1" parent="1">
          <mxGeometry x="587" y="90" width="100" height="40" as="geometry" />
        </mxCell>
        <mxCell id="3GR5pyVDqdPCGIeIbzPI-69" style="edgeStyle=none;shape=connector;rounded=0;orthogonalLoop=1;jettySize=auto;html=1;exitX=0;exitY=1;exitDx=0;exitDy=0;entryX=1;entryY=0;entryDx=0;entryDy=0;strokeColor=default;align=center;verticalAlign=middle;fontFamily=Helvetica;fontSize=11;fontColor=default;labelBackgroundColor=default;endArrow=none;endFill=0;" edge="1" parent="1" source="3GR5pyVDqdPCGIeIbzPI-68" target="3GR5pyVDqdPCGIeIbzPI-2">
          <mxGeometry relative="1" as="geometry" />
        </mxCell>
        <mxCell id="3GR5pyVDqdPCGIeIbzPI-68" value="precio" style="ellipse;whiteSpace=wrap;html=1;align=center;fontFamily=Helvetica;fontSize=11;fontColor=default;labelBackgroundColor=default;" vertex="1" parent="1">
          <mxGeometry x="687" y="130" width="100" height="40" as="geometry" />
        </mxCell>
        <mxCell id="3GR5pyVDqdPCGIeIbzPI-70" value="M:N" style="text;html=1;align=center;verticalAlign=middle;resizable=0;points=[];autosize=1;strokeColor=none;fillColor=none;fontFamily=Helvetica;fontSize=11;fontColor=default;labelBackgroundColor=default;" vertex="1" parent="1">
          <mxGeometry x="167" y="371" width="40" height="30" as="geometry" />
        </mxCell>
        <mxCell id="3GR5pyVDqdPCGIeIbzPI-71" value="(0,N)" style="text;html=1;align=center;verticalAlign=middle;resizable=0;points=[];autosize=1;strokeColor=none;fillColor=none;fontFamily=Helvetica;fontSize=11;fontColor=default;labelBackgroundColor=default;" vertex="1" parent="1">
          <mxGeometry x="230" y="226" width="50" height="30" as="geometry" />
        </mxCell>
        <mxCell id="3GR5pyVDqdPCGIeIbzPI-72" value="(1,N)" style="text;html=1;align=center;verticalAlign=middle;resizable=0;points=[];autosize=1;strokeColor=none;fillColor=none;fontFamily=Helvetica;fontSize=11;fontColor=default;labelBackgroundColor=default;" vertex="1" parent="1">
          <mxGeometry x="230" y="516" width="50" height="30" as="geometry" />
        </mxCell>
        <mxCell id="3GR5pyVDqdPCGIeIbzPI-73" value="M:N" style="text;html=1;align=center;verticalAlign=middle;resizable=0;points=[];autosize=1;strokeColor=none;fillColor=none;fontFamily=Helvetica;fontSize=11;fontColor=default;labelBackgroundColor=default;" vertex="1" parent="1">
          <mxGeometry x="437" y="506" width="40" height="30" as="geometry" />
        </mxCell>
        <mxCell id="3GR5pyVDqdPCGIeIbzPI-74" value="(1,N)" style="text;html=1;align=center;verticalAlign=middle;resizable=0;points=[];autosize=1;strokeColor=none;fillColor=none;fontFamily=Helvetica;fontSize=11;fontColor=default;labelBackgroundColor=default;" vertex="1" parent="1">
          <mxGeometry x="310" y="546" width="50" height="30" as="geometry" />
        </mxCell>
        <mxCell id="3GR5pyVDqdPCGIeIbzPI-76" value="(1,N)" style="text;html=1;align=center;verticalAlign=middle;resizable=0;points=[];autosize=1;strokeColor=none;fillColor=none;fontFamily=Helvetica;fontSize=11;fontColor=default;labelBackgroundColor=default;" vertex="1" parent="1">
          <mxGeometry x="540" y="546" width="50" height="30" as="geometry" />
        </mxCell>
        <mxCell id="3GR5pyVDqdPCGIeIbzPI-77" value="M:N" style="text;html=1;align=center;verticalAlign=middle;resizable=0;points=[];autosize=1;strokeColor=none;fillColor=none;fontFamily=Helvetica;fontSize=11;fontColor=default;labelBackgroundColor=default;" vertex="1" parent="1">
          <mxGeometry x="667" y="341" width="40" height="30" as="geometry" />
        </mxCell>
        <mxCell id="3GR5pyVDqdPCGIeIbzPI-78" value="(1,N)" style="text;html=1;align=center;verticalAlign=middle;resizable=0;points=[];autosize=1;strokeColor=none;fillColor=none;fontFamily=Helvetica;fontSize=11;fontColor=default;labelBackgroundColor=default;" vertex="1" parent="1">
          <mxGeometry x="637" y="220" width="50" height="30" as="geometry" />
        </mxCell>
        <mxCell id="3GR5pyVDqdPCGIeIbzPI-79" value="(1,N)" style="text;html=1;align=center;verticalAlign=middle;resizable=0;points=[];autosize=1;strokeColor=none;fillColor=none;fontFamily=Helvetica;fontSize=11;fontColor=default;labelBackgroundColor=default;" vertex="1" parent="1">
          <mxGeometry x="730" y="366" width="50" height="30" as="geometry" />
        </mxCell>
        <mxCell id="3GR5pyVDqdPCGIeIbzPI-80" value="(1,1)" style="text;html=1;align=center;verticalAlign=middle;resizable=0;points=[];autosize=1;strokeColor=none;fillColor=none;fontFamily=Helvetica;fontSize=11;fontColor=default;labelBackgroundColor=default;" vertex="1" parent="1">
          <mxGeometry x="590" y="220" width="50" height="30" as="geometry" />
        </mxCell>
        <mxCell id="3GR5pyVDqdPCGIeIbzPI-81" value="(1,N)" style="text;html=1;align=center;verticalAlign=middle;resizable=0;points=[];autosize=1;strokeColor=none;fillColor=none;fontFamily=Helvetica;fontSize=11;fontColor=default;labelBackgroundColor=default;" vertex="1" parent="1">
          <mxGeometry x="590" y="516" width="50" height="30" as="geometry" />
        </mxCell>
        <mxCell id="3GR5pyVDqdPCGIeIbzPI-82" value="1:N" style="text;html=1;align=center;verticalAlign=middle;resizable=0;points=[];autosize=1;strokeColor=none;fillColor=none;fontFamily=Helvetica;fontSize=11;fontColor=default;labelBackgroundColor=default;" vertex="1" parent="1">
          <mxGeometry x="569.5" y="401" width="40" height="30" as="geometry" />
        </mxCell>
        <mxCell id="3GR5pyVDqdPCGIeIbzPI-83" value="1:N" style="text;html=1;align=center;verticalAlign=middle;resizable=0;points=[];autosize=1;strokeColor=none;fillColor=none;fontFamily=Helvetica;fontSize=11;fontColor=default;labelBackgroundColor=default;" vertex="1" parent="1">
          <mxGeometry x="437" y="146" width="40" height="30" as="geometry" />
        </mxCell>
        <mxCell id="3GR5pyVDqdPCGIeIbzPI-84" value="(1,1)" style="text;html=1;align=center;verticalAlign=middle;resizable=0;points=[];autosize=1;strokeColor=none;fillColor=none;fontFamily=Helvetica;fontSize=11;fontColor=default;labelBackgroundColor=default;" vertex="1" parent="1">
          <mxGeometry x="310" y="186" width="50" height="30" as="geometry" />
        </mxCell>
        <mxCell id="3GR5pyVDqdPCGIeIbzPI-86" value="(1,N)" style="text;html=1;align=center;verticalAlign=middle;resizable=0;points=[];autosize=1;strokeColor=none;fillColor=none;fontFamily=Helvetica;fontSize=11;fontColor=default;labelBackgroundColor=default;" vertex="1" parent="1">
          <mxGeometry x="540" y="186" width="50" height="30" as="geometry" />
        </mxCell>
      </root>
    </mxGraphModel>
  </diagram>
</mxfile>
